<svg version="1.1" id="Layer_1" xmlns="http://www.w3.org/2000/svg" xmlns:xlink="http://www.w3.org/1999/xlink" x="0px" y="0px"
	 width="100%" viewBox="0 0 752 306" enable-background="new 0 0 752 306" xml:space="preserve">
<path fill="#FEFFFF" opacity="1.000000" stroke="none" 
	d="
M503.000000,307.000000 
	C335.372803,307.000000 168.245605,307.000000 1.059201,307.000000 
	C1.059201,205.063583 1.059201,103.127113 1.059201,1.095323 
	C251.543915,1.095323 502.087860,1.095323 752.815918,1.095323 
	C752.815918,102.999733 752.815918,204.999832 752.815918,307.000000 
	C669.793701,307.000000 586.646851,307.000000 503.000000,307.000000 
M114.868439,149.373978 
	C117.279976,143.011505 119.979248,136.740540 122.038261,130.265961 
	C125.463768,119.494438 119.348656,107.918724 108.632103,104.169022 
	C97.917511,100.419998 86.740120,105.444221 82.517128,116.061111 
	C77.489204,128.701630 72.469475,141.348770 67.737152,154.101013 
	C66.623703,157.101440 65.945114,160.624344 66.328865,163.751984 
	C67.506729,173.351974 75.429665,180.771164 84.909882,181.910553 
	C94.250771,183.033203 103.226967,177.910568 107.007576,169.044220 
	C109.674927,162.788712 112.054977,156.410721 114.868439,149.373978 
M330.815002,202.592117 
	C330.815002,194.042389 330.815002,185.492661 330.815002,175.918335 
	C333.087433,177.507812 334.231812,178.381271 335.444885,179.145599 
	C349.403503,187.940598 366.640686,180.267502 368.214752,164.031815 
	C369.059235,155.321274 368.701813,146.394043 367.910065,137.653076 
	C367.109772,128.817215 361.952667,124.007027 353.209808,122.482964 
	C344.848694,121.025436 337.089691,122.209694 330.892548,129.059509 
	C330.028107,126.717026 329.358276,124.901970 328.692017,123.096497 
	C325.011200,123.096497 321.536407,123.096497 317.820557,123.096497 
	C317.820557,149.636246 317.820557,176.030701 317.820557,202.809402 
	C322.014221,202.809402 325.975891,202.809402 330.815002,202.592117 
M110.782829,222.203110 
	C120.100471,219.747757 129.446213,217.390411 138.706894,214.736359 
	C140.174713,214.315674 141.826752,212.797134 142.425446,211.377792 
	C145.448593,204.210617 148.415894,196.997681 150.903854,189.632248 
	C154.533478,178.887039 148.666229,167.267990 138.009964,163.316483 
	C127.302544,159.345993 115.483833,164.338348 111.166267,174.958725 
	C106.054443,187.532837 100.966278,200.129486 96.419151,212.912491 
	C95.024040,216.834457 95.440895,221.400986 94.950905,226.470001 
	C101.054291,224.835556 105.526260,223.638000 110.782829,222.203110 
M240.417282,134.583954 
	C245.743362,136.692200 246.370895,141.283234 246.390671,146.102524 
	C246.438232,157.693893 246.406052,169.285599 246.406052,180.952057 
	C251.322891,180.952057 255.742233,180.952057 260.128296,180.952057 
	C260.128296,167.210907 260.515289,153.728592 260.011597,140.279633 
	C259.571442,128.527008 252.915314,122.123428 241.141891,122.248230 
	C235.327896,122.309853 229.535843,124.438789 223.238159,125.734283 
	C223.238159,118.340286 223.238159,109.983559 223.238159,101.773865 
	C218.122269,101.773865 213.685776,101.773865 209.266663,101.773865 
	C209.266663,128.360489 209.266663,154.627502 209.266663,181.028687 
	C213.915131,181.028687 218.365540,181.028687 223.122192,181.028687 
	C223.122192,170.190033 223.110123,159.545105 223.125366,148.900208 
	C223.143158,136.469681 227.464447,132.652466 240.417282,134.583954 
M183.209122,106.525902 
	C183.518265,104.126389 183.827408,101.726883 184.162415,99.126724 
	C183.037643,99.126724 182.533752,99.022758 182.089630,99.141792 
	C167.818451,102.966980 153.527145,106.722908 139.320587,110.775665 
	C137.604599,111.265198 135.766846,113.107231 134.992828,114.786659 
	C132.640915,119.889717 130.717972,125.196114 128.746063,130.467499 
	C124.569908,141.631271 129.542099,152.954300 140.512589,157.427856 
	C151.435287,161.881912 163.559769,156.844955 168.050537,145.706131 
	C173.184570,132.971725 178.048569,120.128456 183.209122,106.525902 
M265.913330,133.743347 
	C265.499054,136.071960 265.084778,138.400558 264.608185,141.079391 
	C268.087921,141.079391 270.734772,141.079407 273.381592,141.079407 
	C275.035614,141.079407 276.689636,141.079391 278.262543,141.079391 
	C280.546753,134.252258 285.581390,131.844864 292.714874,133.713547 
	C296.015472,134.578156 297.132324,136.670425 297.503510,139.817841 
	C297.925354,143.394714 295.180695,143.236023 293.151123,144.001404 
	C285.709473,146.807770 277.963135,149.006927 270.904175,152.569397 
	C264.195801,155.954910 262.097931,163.326889 264.083984,171.227631 
	C265.695312,177.637680 270.984833,181.503754 278.538635,182.121582 
	C286.194244,182.747742 292.762146,180.573471 297.979340,174.487991 
	C300.858429,182.124786 301.256653,182.298141 311.195435,180.715195 
	C311.195435,166.606094 311.461517,152.466934 311.092865,138.344315 
	C310.881104,130.230576 305.876892,124.413513 297.781921,123.171844 
	C291.808868,122.255646 285.537903,122.455505 279.492340,123.069962 
	C273.398102,123.689377 268.651367,127.078018 265.913330,133.743347 
M421.581390,134.154602 
	C419.218567,128.816513 415.228790,125.349770 409.634308,123.684158 
	C401.768280,121.342232 393.889008,121.263855 386.071045,123.749390 
	C378.590363,126.127708 373.567963,131.216278 372.993286,139.069702 
	C372.353973,147.806061 372.375061,156.665268 373.038391,165.400375 
	C373.638031,173.296448 378.827515,178.322372 386.265381,180.594849 
	C394.074036,182.980576 402.033936,182.900223 409.864410,180.510254 
	C416.809570,178.390488 422.037323,173.635208 422.491913,166.558563 
	C423.167023,156.048584 422.183075,145.432022 421.581390,134.154602 
M675.606689,183.041779 
	C676.335632,181.575134 677.692139,180.111877 677.700012,178.641373 
	C677.831604,154.173935 677.794312,129.705612 677.794678,105.237480 
	C677.794678,103.608391 677.794617,101.979301 677.794617,100.170189 
	C675.585938,100.170189 673.817627,100.170189 671.192139,100.170189 
	C671.192139,109.930679 671.192139,119.499954 671.192139,129.962616 
	C669.073181,128.231506 667.996887,127.197929 666.776184,126.379913 
	C658.613953,120.910042 649.833252,120.640427 641.080566,124.279091 
	C633.204712,127.553246 629.691467,134.389053 629.388977,142.557404 
	C629.094360,150.514481 629.103943,158.551208 629.892517,166.462006 
	C630.795166,175.518021 636.903931,181.334839 645.869263,183.215714 
	C655.847412,185.309021 664.584106,183.252106 671.243774,175.756668 
	C672.435974,178.243561 673.586243,180.642853 675.606689,183.041779 
M563.726013,162.177521 
	C563.551636,154.696396 563.826050,147.170227 563.080811,139.746429 
	C562.282288,131.792557 557.512817,126.403114 549.910828,123.745155 
	C542.912109,121.298141 535.850952,121.316353 528.876221,123.796852 
	C521.501709,126.419533 516.564453,131.684067 515.966797,139.427292 
	C515.266357,148.501450 515.517395,157.686905 515.947449,166.796158 
	C516.201538,172.177902 519.358643,176.452240 523.746826,179.604843 
	C539.519592,190.936295 560.882385,182.082809 563.726013,162.177521 
M598.047485,183.844238 
	C603.430969,181.391922 608.814453,178.939606 614.070862,176.545166 
	C614.312622,177.878708 614.772522,180.415421 615.258240,183.094711 
	C616.818909,182.971878 618.075562,182.872986 619.617432,182.751648 
	C619.617432,172.686813 619.617371,162.878189 619.617371,153.069580 
	C619.617371,143.125534 619.617432,133.181488 619.617432,123.261139 
	C617.329773,123.261139 615.586243,123.261139 613.593018,123.261139 
	C613.593018,128.697708 613.660828,133.849716 613.577881,138.999283 
	C613.438660,147.648087 613.680237,156.340103 612.873962,164.930618 
	C612.073059,173.463318 605.786316,178.624451 597.399780,178.937820 
	C584.961792,179.402573 578.369202,173.251785 578.245789,160.773407 
	C578.122314,148.293579 578.218628,135.811569 578.218628,123.330742 
	C576.062744,123.330742 574.187378,123.330742 572.119934,123.330742 
	C572.119934,135.829468 572.059937,147.971558 572.134583,160.112808 
	C572.235535,176.528275 580.591980,184.430084 598.047485,183.844238 
M455.710968,131.239227 
	C461.991943,125.914444 469.240601,126.056580 476.476746,128.162842 
	C485.219635,130.707657 484.949768,138.521423 485.231476,145.424393 
	C487.471558,145.424393 489.195618,145.424393 490.890656,145.424393 
	C491.584198,133.018631 487.850067,125.550591 478.450470,123.621994 
	C472.143555,122.327950 465.190643,122.413139 458.837036,123.576202 
	C451.353302,124.946159 446.489288,130.621674 445.981354,138.295624 
	C445.335846,148.048004 445.270386,157.914185 445.974792,167.657532 
	C446.578735,176.010635 452.360229,181.668945 460.654388,183.017746 
	C465.172211,183.752426 469.973694,183.947586 474.485382,183.284576 
	C487.040009,181.439728 492.557800,173.345306 490.575287,160.487183 
	C488.860229,160.487183 487.130798,160.487183 485.219147,160.487183 
	C485.130890,162.055420 485.040985,163.361511 484.986420,164.669083 
	C484.613159,173.610153 480.249054,178.250137 471.593597,178.897461 
	C460.127258,179.755005 453.069977,176.121704 452.170410,167.282471 
	C451.218231,157.926132 451.716827,148.391861 452.071045,138.953690 
	C452.161896,136.532349 454.096375,134.180206 455.710968,131.239227 
M78.168396,186.042953 
	C67.855179,183.417160 58.228310,186.700516 53.457439,195.165878 
	C50.737747,199.991653 49.004448,205.373337 46.340874,211.650269 
	C62.167286,207.390686 76.795464,203.453598 91.662109,199.452316 
	C89.358597,192.614426 84.833115,188.776688 78.168396,186.042953 
M505.205292,128.500626 
	C505.205292,119.079208 505.205292,109.657784 505.205292,100.232620 
	C502.983368,100.232620 501.229614,100.232620 499.324951,100.232620 
	C499.324951,127.854431 499.324951,155.225006 499.324951,182.696198 
	C501.366760,182.696198 503.207642,182.696198 504.992371,182.696198 
	C505.091949,182.027664 505.182953,181.700928 505.183197,181.374130 
	C505.195404,164.082977 505.199921,146.791809 505.205292,128.500626 
M127.285454,85.911934 
	C119.665413,87.951958 112.045372,89.991974 104.178398,92.098106 
	C110.403290,99.280632 118.716766,101.656532 127.038918,98.975609 
	C134.890320,96.446327 139.931732,90.339233 140.573929,82.352623 
	C136.356125,83.487808 132.217804,84.601585 127.285454,85.911934 
z"/>
<path fill="#02BCFA" opacity="1.000000" stroke="none" 
	d="
M114.715866,149.730698 
	C112.054977,156.410721 109.674927,162.788712 107.007576,169.044220 
	C103.226967,177.910568 94.250771,183.033203 84.909882,181.910553 
	C75.429665,180.771164 67.506729,173.351974 66.328865,163.751984 
	C65.945114,160.624344 66.623703,157.101440 67.737152,154.101013 
	C72.469475,141.348770 77.489204,128.701630 82.517128,116.061111 
	C86.740120,105.444221 97.917511,100.419998 108.632103,104.169022 
	C119.348656,107.918724 125.463768,119.494438 122.038261,130.265961 
	C119.979248,136.740540 117.279976,143.011505 114.715866,149.730698 
z"/>
<path fill="#040404" opacity="1.000000" stroke="none" 
	d="
M330.376282,202.700760 
	C325.975891,202.809402 322.014221,202.809402 317.820557,202.809402 
	C317.820557,176.030701 317.820557,149.636246 317.820557,123.096497 
	C321.536407,123.096497 325.011200,123.096497 328.692017,123.096497 
	C329.358276,124.901970 330.028107,126.717026 330.892548,129.059509 
	C337.089691,122.209694 344.848694,121.025436 353.209808,122.482964 
	C361.952667,124.007027 367.109772,128.817215 367.910065,137.653076 
	C368.701813,146.394043 369.059235,155.321274 368.214752,164.031815 
	C366.640686,180.267502 349.403503,187.940598 335.444885,179.145599 
	C334.231812,178.381271 333.087433,177.507812 330.815002,175.918335 
	C330.815002,185.492661 330.815002,194.042389 330.376282,202.700760 
M331.084778,150.565948 
	C331.109375,153.729584 330.904663,156.915237 331.206085,160.052277 
	C331.845032,166.703094 336.652130,170.722260 343.440460,170.589081 
	C350.723328,170.446167 354.263580,167.344345 354.695892,160.078094 
	C355.011749,154.768707 355.031799,149.406799 354.683228,144.101181 
	C354.194122,136.656372 350.879517,133.829102 343.408478,133.758102 
	C336.183685,133.689453 331.916992,137.258972 331.176758,144.122452 
	C330.981232,145.935226 331.106628,147.782578 331.084778,150.565948 
z"/>
<path fill="#03BCFA" opacity="1.000000" stroke="none" 
	d="
M110.390533,222.321777 
	C105.526260,223.638000 101.054291,224.835556 94.950905,226.470001 
	C95.440895,221.400986 95.024040,216.834457 96.419151,212.912491 
	C100.966278,200.129486 106.054443,187.532837 111.166267,174.958725 
	C115.483833,164.338348 127.302544,159.345993 138.009964,163.316483 
	C148.666229,167.267990 154.533478,178.887039 150.903854,189.632248 
	C148.415894,196.997681 145.448593,204.210617 142.425446,211.377792 
	C141.826752,212.797134 140.174713,214.315674 138.706894,214.736359 
	C129.446213,217.390411 120.100471,219.747757 110.390533,222.321777 
z"/>
<path fill="#060606" opacity="1.000000" stroke="none" 
	d="
M240.036987,134.421661 
	C227.464447,132.652466 223.143158,136.469681 223.125366,148.900208 
	C223.110123,159.545105 223.122192,170.190033 223.122192,181.028687 
	C218.365540,181.028687 213.915131,181.028687 209.266663,181.028687 
	C209.266663,154.627502 209.266663,128.360489 209.266663,101.773865 
	C213.685776,101.773865 218.122269,101.773865 223.238159,101.773865 
	C223.238159,109.983559 223.238159,118.340286 223.238159,125.734283 
	C229.535843,124.438789 235.327896,122.309853 241.141891,122.248230 
	C252.915314,122.123428 259.571442,128.527008 260.011597,140.279633 
	C260.515289,153.728592 260.128296,167.210907 260.128296,180.952057 
	C255.742233,180.952057 251.322891,180.952057 246.406052,180.952057 
	C246.406052,169.285599 246.438232,157.693893 246.390671,146.102524 
	C246.370895,141.283234 245.743362,136.692200 240.036987,134.421661 
M224.027252,127.492905 
	C223.804428,127.417694 223.581589,127.342484 223.358780,127.267281 
	C223.435593,127.500481 223.512405,127.733688 224.027252,127.492905 
z"/>
<path fill="#03BCFA" opacity="1.000000" stroke="none" 
	d="
M183.119507,106.929199 
	C178.048569,120.128456 173.184570,132.971725 168.050537,145.706131 
	C163.559769,156.844955 151.435287,161.881912 140.512589,157.427856 
	C129.542099,152.954300 124.569908,141.631271 128.746063,130.467499 
	C130.717972,125.196114 132.640915,119.889717 134.992828,114.786659 
	C135.766846,113.107231 137.604599,111.265198 139.320587,110.775665 
	C153.527145,106.722908 167.818451,102.966980 182.089630,99.141792 
	C182.533752,99.022758 183.037643,99.126724 184.162415,99.126724 
	C183.827408,101.726883 183.518265,104.126389 183.119507,106.929199 
z"/>
<path fill="#040404" opacity="1.000000" stroke="none" 
	d="
M266.006409,133.354889 
	C268.651367,127.078018 273.398102,123.689377 279.492340,123.069962 
	C285.537903,122.455505 291.808868,122.255646 297.781921,123.171844 
	C305.876892,124.413513 310.881104,130.230576 311.092865,138.344315 
	C311.461517,152.466934 311.195435,166.606094 311.195435,180.715195 
	C301.256653,182.298141 300.858429,182.124786 297.979340,174.487991 
	C292.762146,180.573471 286.194244,182.747742 278.538635,182.121582 
	C270.984833,181.503754 265.695312,177.637680 264.083984,171.227631 
	C262.097931,163.326889 264.195801,155.954910 270.904175,152.569397 
	C277.963135,149.006927 285.709473,146.807770 293.151123,144.001404 
	C295.180695,143.236023 297.925354,143.394714 297.503510,139.817841 
	C297.132324,136.670425 296.015472,134.578156 292.714874,133.713547 
	C285.581390,131.844864 280.546753,134.252258 278.262543,141.079391 
	C276.689636,141.079391 275.035614,141.079407 273.381592,141.079407 
	C270.734772,141.079407 268.087921,141.079391 264.608185,141.079391 
	C265.084778,138.400558 265.499054,136.071960 266.006409,133.354889 
M289.107178,170.873169 
	C297.106201,166.519760 298.732941,163.132629 297.407684,153.026855 
	C292.062683,154.999542 286.581726,156.512924 281.658264,159.091003 
	C279.696777,160.118103 278.187103,163.423035 277.951294,165.835602 
	C277.792755,167.457474 279.878479,170.080261 281.602356,170.893036 
	C283.466492,171.771927 286.077423,171.066742 289.107178,170.873169 
z"/>
<path fill="#050505" opacity="1.000000" stroke="none" 
	d="
M421.743347,134.507721 
	C422.183075,145.432022 423.167023,156.048584 422.491913,166.558563 
	C422.037323,173.635208 416.809570,178.390488 409.864410,180.510254 
	C402.033936,182.900223 394.074036,182.980576 386.265381,180.594849 
	C378.827515,178.322372 373.638031,173.296448 373.038391,165.400375 
	C372.375061,156.665268 372.353973,147.806061 372.993286,139.069702 
	C373.567963,131.216278 378.590363,126.127708 386.071045,123.749390 
	C393.889008,121.263855 401.768280,121.342232 409.634308,123.684158 
	C415.228790,125.349770 419.218567,128.816513 421.743347,134.507721 
M407.339172,137.422012 
	C400.731140,131.131927 388.441284,132.554718 387.274780,140.250046 
	C386.102203,147.985504 386.509094,156.078400 387.187256,163.931473 
	C387.584503,168.531555 392.024811,170.629578 397.990112,170.588669 
	C403.867249,170.548355 408.434326,168.277390 408.634125,163.685059 
	C409.004456,155.173355 408.168396,146.609177 407.339172,137.422012 
z"/>
<path fill="#0D0D0D" opacity="1.000000" stroke="none" 
	d="
M675.171631,183.041962 
	C673.586243,180.642853 672.435974,178.243561 671.243774,175.756668 
	C664.584106,183.252106 655.847412,185.309021 645.869263,183.215714 
	C636.903931,181.334839 630.795166,175.518021 629.892517,166.462006 
	C629.103943,158.551208 629.094360,150.514481 629.388977,142.557404 
	C629.691467,134.389053 633.204712,127.553246 641.080566,124.279091 
	C649.833252,120.640427 658.613953,120.910042 666.776184,126.379913 
	C667.996887,127.197929 669.073181,128.231506 671.192139,129.962616 
	C671.192139,119.499954 671.192139,109.930679 671.192139,100.170189 
	C673.817627,100.170189 675.585938,100.170189 677.794617,100.170189 
	C677.794617,101.979301 677.794678,103.608391 677.794678,105.237480 
	C677.794312,129.705612 677.831604,154.173935 677.700012,178.641373 
	C677.692139,180.111877 676.335632,181.575134 675.171631,183.041962 
M670.245239,136.575073 
	C666.018616,128.817200 658.704041,125.585892 649.102173,127.234879 
	C641.418274,128.554489 636.279236,133.450150 635.642395,141.721939 
	C635.045166,149.478806 635.000305,157.408005 635.916687,165.118240 
	C637.024597,174.440399 643.522766,178.987152 653.580566,178.961899 
	C663.398743,178.937256 670.609497,174.071930 671.324402,165.066895 
	C672.053833,155.878540 670.937805,146.543671 670.245239,136.575073 
z"/>
<path fill="#0B0B0B" opacity="1.000000" stroke="none" 
	d="
M563.696533,162.632874 
	C560.882385,182.082809 539.519592,190.936295 523.746826,179.604843 
	C519.358643,176.452240 516.201538,172.177902 515.947449,166.796158 
	C515.517395,157.686905 515.266357,148.501450 515.966797,139.427292 
	C516.564453,131.684067 521.501709,126.419533 528.876221,123.796852 
	C535.850952,121.316353 542.912109,121.298141 549.910828,123.745155 
	C557.512817,126.403114 562.282288,131.792557 563.080811,139.746429 
	C563.826050,147.170227 563.551636,154.696396 563.696533,162.632874 
M523.936096,171.293884 
	C528.893372,178.053925 536.549622,180.644211 545.090027,178.450714 
	C552.374084,176.579910 556.909485,171.754013 557.412903,163.445999 
	C557.892578,155.529053 557.738586,147.476059 556.833435,139.601242 
	C555.985046,132.220490 549.919556,127.669487 542.195312,127.089371 
	C532.183594,126.337448 524.507324,129.725433 522.762390,137.286163 
	C520.217102,148.314621 519.762939,159.609787 523.936096,171.293884 
z"/>
<path fill="#0F0F0F" opacity="1.000000" stroke="none" 
	d="
M597.607300,183.884583 
	C580.591980,184.430084 572.235535,176.528275 572.134583,160.112808 
	C572.059937,147.971558 572.119934,135.829468 572.119934,123.330742 
	C574.187378,123.330742 576.062744,123.330742 578.218628,123.330742 
	C578.218628,135.811569 578.122314,148.293579 578.245789,160.773407 
	C578.369202,173.251785 584.961792,179.402573 597.399780,178.937820 
	C605.786316,178.624451 612.073059,173.463318 612.873962,164.930618 
	C613.680237,156.340103 613.438660,147.648087 613.577881,138.999283 
	C613.660828,133.849716 613.593018,128.697708 613.593018,123.261139 
	C615.586243,123.261139 617.329773,123.261139 619.617432,123.261139 
	C619.617432,133.181488 619.617371,143.125534 619.617371,153.069580 
	C619.617371,162.878189 619.617432,172.686813 619.617432,182.751648 
	C618.075562,182.872986 616.818909,182.971878 615.258240,183.094711 
	C614.772522,180.415421 614.312622,177.878708 614.070862,176.545166 
	C608.814453,178.939606 603.430969,181.391922 597.607300,183.884583 
z"/>
<path fill="#0B0B0B" opacity="1.000000" stroke="none" 
	d="
M455.447418,131.517761 
	C454.096375,134.180206 452.161896,136.532349 452.071045,138.953690 
	C451.716827,148.391861 451.218231,157.926132 452.170410,167.282471 
	C453.069977,176.121704 460.127258,179.755005 471.593597,178.897461 
	C480.249054,178.250137 484.613159,173.610153 484.986420,164.669083 
	C485.040985,163.361511 485.130890,162.055420 485.219147,160.487183 
	C487.130798,160.487183 488.860229,160.487183 490.575287,160.487183 
	C492.557800,173.345306 487.040009,181.439728 474.485382,183.284576 
	C469.973694,183.947586 465.172211,183.752426 460.654388,183.017746 
	C452.360229,181.668945 446.578735,176.010635 445.974792,167.657532 
	C445.270386,157.914185 445.335846,148.048004 445.981354,138.295624 
	C446.489288,130.621674 451.353302,124.946159 458.837036,123.576202 
	C465.190643,122.413139 472.143555,122.327950 478.450470,123.621994 
	C487.850067,125.550591 491.584198,133.018631 490.890656,145.424393 
	C489.195618,145.424393 487.471558,145.424393 485.231476,145.424393 
	C484.949768,138.521423 485.219635,130.707657 476.476746,128.162842 
	C469.240601,126.056580 461.991943,125.914444 455.447418,131.517761 
z"/>
<path fill="#06BCFA" opacity="1.000000" stroke="none" 
	d="
M78.550392,186.159180 
	C84.833115,188.776688 89.358597,192.614426 91.662109,199.452316 
	C76.795464,203.453598 62.167286,207.390686 46.340874,211.650269 
	C49.004448,205.373337 50.737747,199.991653 53.457439,195.165878 
	C58.228310,186.700516 67.855179,183.417160 78.550392,186.159180 
z"/>
<path fill="#0A0A0A" opacity="1.000000" stroke="none" 
	d="
M505.205261,129.000641 
	C505.199921,146.791809 505.195404,164.082977 505.183197,181.374130 
	C505.182953,181.700928 505.091949,182.027664 504.992371,182.696198 
	C503.207642,182.696198 501.366760,182.696198 499.324951,182.696198 
	C499.324951,155.225006 499.324951,127.854431 499.324951,100.232620 
	C501.229614,100.232620 502.983368,100.232620 505.205292,100.232620 
	C505.205292,109.657784 505.205292,119.079208 505.205261,129.000641 
z"/>
<path fill="#09BDFA" opacity="1.000000" stroke="none" 
	d="
M127.682480,85.813652 
	C132.217804,84.601585 136.356125,83.487808 140.573929,82.352623 
	C139.931732,90.339233 134.890320,96.446327 127.038918,98.975609 
	C118.716766,101.656532 110.403290,99.280632 104.178398,92.098106 
	C112.045372,89.991974 119.665413,87.951958 127.682480,85.813652 
z"/>
<path fill="#FAFAFA" opacity="1.000000" stroke="none" 
	d="
M331.084717,150.089996 
	C331.106628,147.782578 330.981232,145.935226 331.176758,144.122452 
	C331.916992,137.258972 336.183685,133.689453 343.408478,133.758102 
	C350.879517,133.829102 354.194122,136.656372 354.683228,144.101181 
	C355.031799,149.406799 355.011749,154.768707 354.695892,160.078094 
	C354.263580,167.344345 350.723328,170.446167 343.440460,170.589081 
	C336.652130,170.722260 331.845032,166.703094 331.206085,160.052277 
	C330.904663,156.915237 331.109375,153.729584 331.084717,150.089996 
z"/>
<path fill="#FEFFFF" opacity="1.000000" stroke="none" 
	d="
M223.808228,127.729904 
	C223.512405,127.733688 223.435593,127.500481 223.358765,127.267273 
	C223.581589,127.342484 223.804428,127.417694 223.808228,127.729904 
z"/>
<path fill="#F6F6F6" opacity="1.000000" stroke="none" 
	d="
M288.734924,170.962830 
	C286.077423,171.066742 283.466492,171.771927 281.602356,170.893036 
	C279.878479,170.080261 277.792755,167.457474 277.951294,165.835602 
	C278.187103,163.423035 279.696777,160.118103 281.658264,159.091003 
	C286.581726,156.512924 292.062683,154.999542 297.407684,153.026855 
	C298.732941,163.132629 297.106201,166.519760 288.734924,170.962830 
z"/>
<path fill="#FAFAFA" opacity="1.000000" stroke="none" 
	d="
M407.586975,137.744431 
	C408.168396,146.609177 409.004456,155.173355 408.634125,163.685059 
	C408.434326,168.277390 403.867249,170.548355 397.990112,170.588669 
	C392.024811,170.629578 387.584503,168.531555 387.187256,163.931473 
	C386.509094,156.078400 386.102203,147.985504 387.274780,140.250046 
	C388.441284,132.554718 400.731140,131.131927 407.586975,137.744431 
z"/>
<path fill="#FBFBFB" opacity="1.000000" stroke="none" 
	d="
M670.437500,136.924011 
	C670.937805,146.543671 672.053833,155.878540 671.324402,165.066895 
	C670.609497,174.071930 663.398743,178.937256 653.580566,178.961899 
	C643.522766,178.987152 637.024597,174.440399 635.916687,165.118240 
	C635.000305,157.408005 635.045166,149.478806 635.642395,141.721939 
	C636.279236,133.450150 641.418274,128.554489 649.102173,127.234879 
	C658.704041,125.585892 666.018616,128.817200 670.437500,136.924011 
z"/>
<path fill="#FBFBFB" opacity="1.000000" stroke="none" 
	d="
M523.727051,170.970734 
	C519.762939,159.609787 520.217102,148.314621 522.762390,137.286163 
	C524.507324,129.725433 532.183594,126.337448 542.195312,127.089371 
	C549.919556,127.669487 555.985046,132.220490 556.833435,139.601242 
	C557.738586,147.476059 557.892578,155.529053 557.412903,163.445999 
	C556.909485,171.754013 552.374084,176.579910 545.090027,178.450714 
	C536.549622,180.644211 528.893372,178.053925 523.727051,170.970734 
z"/>
</svg>